<?xml version="1.0" encoding="UTF-8"?>
<svg xmlns="http://www.w3.org/2000/svg" xmlns:xlink="http://www.w3.org/1999/xlink" width="317pt" height="394pt" viewBox="0 0 317 394" version="1.1">
<g id="surface1">
<path style=" stroke:none;fill-rule:nonzero;fill:rgb(39.215686%,8.235294%,100%);fill-opacity:1;" d="M 143.859375 198.046875 C 145.199219 199.390625 147.371094 199.390625 148.710938 198.046875 L 151.148438 195.605469 C 152.488281 194.261719 152.488281 192.085938 151.148438 190.746094 L 143.480469 183.082031 L 151.132812 175.410156 C 152.472656 174.066406 152.472656 171.890625 151.132812 170.550781 L 148.695312 168.105469 C 147.355469 166.765625 145.183594 166.765625 143.84375 168.105469 L 131.347656 180.628906 C 130.007812 181.972656 130.007812 184.148438 131.347656 185.488281 L 143.84375 198.011719 Z M 164.4375 195.621094 L 166.875 198.0625 C 168.214844 199.40625 170.386719 199.40625 171.726562 198.0625 L 184.222656 185.539062 C 185.5625 184.199219 185.5625 182.023438 184.222656 180.679688 L 171.726562 168.160156 C 170.386719 166.816406 168.214844 166.816406 166.875 168.160156 L 164.4375 170.601562 C 163.097656 171.945312 163.097656 174.121094 164.4375 175.460938 L 172.089844 183.082031 L 164.433594 190.753906 C 163.09375 192.097656 163.09375 194.273438 164.433594 195.613281 Z M 222.9375 231.1875 L 170.972656 231.1875 C 171 233.042969 170.265625 234.832031 168.941406 236.132812 C 167.617188 237.433594 165.816406 238.128906 163.960938 238.058594 L 150.925781 238.058594 C 147.167969 237.925781 144.128906 234.949219 143.914062 231.1875 L 92.632812 231.1875 C 90.738281 231.191406 89.207031 232.726562 89.203125 234.621094 L 89.203125 238.058594 C 89.222656 245.640625 95.351562 251.78125 102.917969 251.800781 L 212.648438 251.800781 C 220.214844 251.78125 226.34375 245.640625 226.367188 238.058594 L 226.367188 234.621094 C 226.359375 232.726562 224.828125 231.191406 222.9375 231.1875 Z M 212.648438 152.15625 C 212.632812 146.472656 208.035156 141.867188 202.363281 141.847656 L 113.207031 141.847656 C 107.53125 141.867188 102.933594 146.472656 102.917969 152.15625 L 102.917969 224.3125 L 212.648438 224.3125 Z M 198.933594 210.570312 L 116.632812 210.570312 L 116.632812 155.59375 L 198.933594 155.59375 Z M 198.933594 210.570312 "/>
</g>
</svg>
